<?xml version="1.0" encoding="utf-8"?>
<!-- Generator: Adobe Illustrator 21.0.0, SVG Export Plug-In . SVG Version: 6.00 Build 0)  -->
<svg version="1.1" id="图层_1" xmlns="http://www.w3.org/2000/svg" xmlns:xlink="http://www.w3.org/1999/xlink" x="0px" y="0px"
	 viewBox="0 0 56.69 56.69" style="enable-background:new 0 0 56.69 56.69;" xml:space="preserve">
<style type="text/css">
	.st0{fill:#FFFFFF;}
	.st1{fill:#9B9A9A;}
	.st2{opacity:0.7;}
</style>
<g>
	<path class="st0" d="M28.345,55.69C13.267,55.69,1,43.424,1,28.345C1,13.267,13.267,1,28.345,1C43.424,1,55.69,13.267,55.69,28.345
		C55.69,43.424,43.424,55.69,28.345,55.69z"/>
	<path class="st1" d="M28.345,2C42.872,2,54.69,13.818,54.69,28.345c0,14.527-11.818,26.345-26.345,26.345
		C13.818,54.69,2,42.872,2,28.345C2,13.818,13.818,2,28.345,2 M28.345,0L28.345,0C12.69,0,0,12.69,0,28.345v0
		C0,44,12.69,56.69,28.345,56.69h0C44,56.69,56.69,44,56.69,28.345v0C56.69,12.69,44,0,28.345,0L28.345,0z"/>
</g>
<g class="st2">
	<path d="M31.88,28.345l7.429-7.429c0.976-0.976,0.976-2.559,0-3.535s-2.559-0.976-3.535,0l-7.429,7.429l-7.429-7.429
		c-0.976-0.976-2.559-0.976-3.535,0s-0.976,2.559,0,3.535l7.429,7.429l-7.429,7.429c-0.976,0.976-0.976,2.559,0,3.535
		c0.976,0.976,2.559,0.976,3.535,0l7.429-7.429l7.429,7.429c0.976,0.976,2.559,0.976,3.535,0c0.976-0.976,0.976-2.559,0-3.535
		L31.88,28.345z"/>
</g>
</svg>
