<?xml version="1.0" encoding="utf-8"?>
<!-- Generator: Adobe Illustrator 21.0.0, SVG Export Plug-In . SVG Version: 6.00 Build 0)  -->
<svg version="1.1" id="图层_1" xmlns="http://www.w3.org/2000/svg" xmlns:xlink="http://www.w3.org/1999/xlink" x="0px" y="0px"
	 viewBox="0 0 200 200" style="enable-background:new 0 0 200 200;" xml:space="preserve">
<style type="text/css">
	.st0{fill:#1EBDF4;}
</style>
<path class="st0" d="M98.5,12.6c-34.7,0-56.8,28-56.8,62.7s48.4,84.5,56.8,84.5s56.8-49.8,56.8-84.5S133.2,12.6,98.5,12.6z
	 M98.5,94.2c-13.7,0-24.8-11.1-24.8-24.8s11.1-24.8,24.8-24.8s24.8,11.1,24.8,24.8C123.3,83.1,112.2,94.2,98.5,94.2z M54.8,139.4
	c-20.7,4.4-33.5,11.4-33.5,21.9c0,16.3,35,26.2,78.7,26.2c43.7,0,78.7-9.9,78.7-26.2c0-10.8-13.7-18.1-35.9-22.4
	c-3.2-0.6-6.1,1.5-6.7,4.7c-0.6,3.2,1.5,6.1,4.7,6.7c16.6,3.2,26.5,8.5,26.5,11.1c0,0.6-0.9,1.5-3.2,3.2c-3.2,2-7.9,4.1-14,5.8
	c-13.1,3.8-30.9,5.8-49.8,5.8s-37-2-49.8-5.8c-6.1-1.8-10.8-3.8-14-5.8c-2.6-1.8-3.5-2.6-3.5-3.2c0-2.3,9-7.3,24.2-10.5
	c3.2-0.6,5.3-3.8,4.4-7C61.2,140.5,58,138.5,54.8,139.4L54.8,139.4z"/>
</svg>
